<svg fill="#FE686A" id="fi_3549834" height="512" viewBox="0 0 1560 1560" width="512" xmlns="http://www.w3.org/2000/svg"><g><g><g><g><path d="m780.3 1556c-4.1 0-8.3-.8-12.2-2.4-12-5-19.8-16.6-19.8-29.6v-1488c0-17.7 14.3-32 32-32s32 14.3 32 32v1410.7l322.1-322.1c12.5-12.5 32.8-12.5 45.3 0s12.5 32.8 0 45.3l-376.7 376.7c-6.2 6.1-14.4 9.4-22.7 9.4z"></path></g><g><path d="m780.3 1556c-8.2 0-16.4-3.1-22.6-9.4l-377.3-377.3c-12.5-12.5-12.5-32.8 0-45.3s32.8-12.5 45.3 0l377.3 377.3c12.5 12.5 12.5 32.8 0 45.3-6.4 6.3-14.5 9.4-22.7 9.4z"></path></g></g></g></g></svg>