<svg width="30" height="45" viewBox="0 0 60 90" fill="none" xmlns="http://www.w3.org/2000/svg">
    <path d="M30.0001 0C13.4583 0 0 13.4583 0 30.0001C0 34.9659 1.24154 39.8895 3.60176 44.2566L28.3595 89.0332C28.6891 89.6302 29.3171 90 30.0001 90C30.683 90 31.311 89.6302 31.6406 89.0332L56.4075 44.2419C58.7586 39.8895 60.0001 34.9657 60.0001 29.9999C60.0001 13.4583 46.5418 0 30.0001 0ZM30.0001 45C21.7292 45 15.0001 38.2709 15.0001 30.0001C15.0001 21.7292 21.7292 15.0001 30.0001 15.0001C38.2709 15.0001 45 21.7292 45 30.0001C45 38.2709 38.2709 45 30.0001 45Z" fill="#EE7203"/>
    <path d="M30.0001 45C21.7292 45 15.0001 38.2709 15.0001 30.0001C15.0001 21.7292 21.7292 15.0001 30.0001 15.0001C38.2709 15.0001 45 21.7292 45 30.0001C45 38.2709 38.2709 45 30.0001 45Z" fill="#FFF"/>
</svg>