<svg width="35" height="37" viewBox="0 0 35 37" fill="none" xmlns="http://www.w3.org/2000/svg">
    <path d="M4.96902 36.1455C3.18445 33.2084 1.97615 30.1411 1.34412 26.9438C0.712084 23.7464 0.656316 20.6049 1.17681 17.5191C1.69731 14.4332 2.77549 11.4776 4.41134 8.652C6.08437 5.78925 8.31508 3.22394 11.1035 0.956055L15.3976 3.57713C16.1411 4.06045 16.4758 4.65531 16.4014 5.3617C16.327 6.06809 16.0854 6.62577 15.6764 7.03473C14.8957 7.96419 14.1521 9.19108 13.4457 10.7154C12.7393 12.2397 12.2374 13.9499 11.94 15.846C11.6797 17.7421 11.7169 19.7684 12.0515 21.9247C12.3861 24.0811 13.2226 26.2374 14.5611 28.3938C15.2303 29.4719 15.4162 30.42 15.1187 31.2379C14.8213 32.0187 14.2079 32.5763 13.2784 32.9109L4.96902 36.1455ZM23.4839 36.1455C21.6993 33.2084 20.491 30.1411 19.859 26.9438C19.227 23.7464 19.1712 20.6049 19.6917 17.5191C20.2122 14.4332 21.2904 11.4776 22.9262 8.652C24.5992 5.78925 26.83 3.22394 29.6183 0.956055L33.9124 3.57713C34.656 4.06045 34.9906 4.65531 34.9163 5.3617C34.8419 6.06809 34.6003 6.62577 34.1913 7.03473C33.4105 7.96419 32.667 9.19108 31.9606 10.7154C31.2542 12.2397 30.7523 13.9499 30.4549 15.846C30.1946 17.7421 30.2318 19.7684 30.5664 21.9247C30.901 24.0811 31.7375 26.2374 33.0759 28.3938C33.7451 29.4719 33.931 30.42 33.6336 31.2379C33.3362 32.0187 32.7227 32.5763 31.7933 32.9109L23.4839 36.1455Z" fill="#48D6CB"/>
</svg>